<svg fill="none" height="512" viewBox="0 0 24 24" width="512" xmlns="http://www.w3.org/2000/svg"><g fill="rgb(0,0,0)"><path d="m11.9444 3.08127c-.6151-.20716-1.3327 0-1.8453.4143l-3.17814 3.21087c-.71764.82862-1.74284 1.24292-2.87056 1.24292s-2.0504.82861-2.0504 1.96796v4.14308c0 1.1393.92268 1.9679 1.94788 1.9679s2.15292.4143 2.87056 1.2429l3.17812 3.2109c.30754.3107.82014.5179 1.23024.5179.205 0 .4101 0 .5126-.1036.6151-.2071 1.1277-.725 1.2302-1.45.3076-2.0716.7177-5.0753.7177-7.5611 0-2.48587-.2051-5.28243-.6151-7.45754-.1026-.62146-.5126-1.13934-1.1278-1.34649z"/><path d="m19.8385 4.32414c-.205-.31073-.7176-.41431-1.0252-.20715-.3076.20715-.4101.72503-.205 1.03576 1.2302 1.86438 1.9478 4.24664 1.9478 6.83605 0 2.5894-.7176 4.9717-1.9478 6.836-.2051.3108-.1026.8287.205 1.0358.1025.1036.3076.1036.4101.1036.205 0 .5126-.1036.6151-.3107 1.4353-2.0716 2.1529-4.7646 2.1529-7.6647.1025-2.90014-.7176-5.59313-2.1529-7.66466z"/><path d="m15.8401 6.08502c-.4101.20715-.5126.62146-.4101 1.03577.6152 1.24291.9227 3.00371.9227 4.86811s-.3075 3.5216-.9227 4.8681c-.205.4143 0 .8286.4101 1.0357.1025.1036.2051.1036.3076.1036.3075 0 .5126-.2071.7176-.4143.7177-1.4501 1.1277-3.418 1.1277-5.4895 0-2.0716-.41-4.03953-1.1277-5.4896-.205-.51788-.6151-.72503-1.0252-.51788z"/></g></svg>