<svg height="480pt" viewBox="0 0 480 480" width="480pt" xmlns="http://www.w3.org/2000/svg"><path d="m376 312c-13.253906 0-24-10.746094-24-24 0-4.417969-3.582031-8-8-8s-8 3.582031-8 8c0 13.253906-10.746094 24-24 24-4.417969 0-8 3.582031-8 8s3.582031 8 8 8c13.253906 0 24 10.746094 24 24 0 4.417969 3.582031 8 8 8s8-3.582031 8-8c0-13.253906 10.746094-24 24-24 4.417969 0 8-3.582031 8-8s-3.582031-8-8-8zm-32 16.246094c-2.332031-3.136719-5.109375-5.914063-8.246094-8.246094 3.136719-2.332031 5.914063-5.109375 8.246094-8.246094 2.332031 3.136719 5.109375 5.914063 8.246094 8.246094-3.136719 2.332031-5.914063 5.109375-8.246094 8.246094zm0 0"/><path d="m472 0h-80c-75.074219.0820312-135.917969 60.925781-136 136v76.328125c-7.324219 46.894531-11.949219 94.171875-13.847656 141.601563-8.175782-13.601563-15.199219-24.113282-18.152344-28.402344v-77.527344c-.082031-75.074219-60.925781-135.917969-136-136h-80c-4.417969 0-8 3.582031-8 8 .148438 117.546875 94.183594 213.4375 211.703125 215.886719 5.152344 7.632812 18.335937 27.664062 30.167969 49.945312.585937 36.113281 4.585937 69.359375 15 89.800781 2.011718 3.925782 6.824218 5.484376 10.753906 3.484376 3.933594-2.003907 5.5-6.8125 3.503906-10.75-9.386718-18.398438-12.921875-49.421876-13.34375-83.566407.089844-.691406.089844-1.390625 0-2.082031.558594-53.1875 4.792969-106.273438 12.679688-158.878906 116.648437-3.609375 209.382812-99.136719 209.535156-215.839844 0-4.417969-3.582031-8-8-8zm-455.839844 128h71.839844c66.242188.074219 119.925781 53.757812 120 120v45.976562c-9.804688-17.152343-21.171875-33.363281-33.960938-48.425781-.160156-.191406-.285156-.390625-.464843-.566406-12.144531-14.261719-25.410157-27.53125-39.671875-39.679687-.074219-.351563-.175782-.695313-.300782-1.03125-18.402343-35.050782-3.203124-44.472657-2.25-45.015626 3.796876-2.066406 5.269532-6.773437 3.324219-10.632812-1.945312-3.859375-6.605469-5.476562-10.523437-3.648438-6.632813 3.757813-11.542969 9.945313-13.703125 17.253907-2.324219 7.90625-2.507813 16.289062-.539063 24.289062-13.402344-9.816406-27.640625-18.445312-42.550781-25.785156-3.988281-1.738281-8.636719.027344-10.460937 3.976563-1.824219 3.949218-.160157 8.632812 3.75 10.546874 29.542968 15.304688 56.589843 35.011719 80.207031 58.445313-37.777344-7.117187-50.847657 11.542969-51.503907 12.519531-2.378906 3.589844-1.445312 8.421875 2.097657 10.867188 3.582031 2.460937 8.472656 1.664062 11.085937-1.808594.144532-.160156 13.855469-17.191406 60.058594 1.832031 16.128906 19.019531 29.816406 39.980469 40.742188 62.398438-102.179688-6.589844-182.925782-89.207031-187.175782-191.511719zm259.128906 79.632812c10.695313-22.183593 24.160157-42.914062 40.078126-61.703124 47.242187-20.160157 61.601562-3.3125 62.097656-2.664063 2.550781 3.484375 7.410156 4.3125 10.976562 1.871094 3.5625-2.441407 4.542969-7.273438 2.214844-10.914063-.65625-.984375-14.097656-20.085937-53.03125-12.175781 24.050781-23.660156 51.597656-43.480469 81.679688-58.757813 4.023437-1.824218 5.808593-6.5625 3.988281-10.589843-1.824219-4.023438-6.5625-5.808594-10.589844-3.988281-14.859375 7.175781-29.070313 15.625-42.472656 25.25 1.855469-7.832032 1.636719-16.007813-.628907-23.730469-2.160156-7.308594-7.074218-13.496094-13.707031-17.253907-3.976562-1.949218-8.777343-.304687-10.726562 3.671876-1.949219 3.976562-.304688 8.777343 3.671875 10.726562 2.6875 1.910156 4.644531 4.683594 5.542968 7.855469 2.015626 6.175781 2.273438 17.601562-7.917968 37.027343-29.714844 24.539063-54.914063 54.082032-74.464844 87.292969v-43.550781c.074219-66.242188 53.757812-119.925781 120-120h71.839844c-4.253906 102.84375-85.789063 185.710938-188.550782 191.632812zm0 0"/><path d="m192 40c0-4.417969-3.582031-8-8-8s-8 3.582031-8 8c0 13.253906-10.746094 24-24 24-4.417969 0-8 3.582031-8 8s3.582031 8 8 8c13.253906 0 24 10.746094 24 24 0 4.417969 3.582031 8 8 8s8-3.582031 8-8c0-13.253906 10.746094-24 24-24 4.417969 0 8-3.582031 8-8s-3.582031-8-8-8c-13.253906 0-24-10.746094-24-24zm-8 40.246094c-2.332031-3.136719-5.109375-5.914063-8.246094-8.246094 3.136719-2.332031 5.914063-5.109375 8.246094-8.246094 2.332031 3.136719 5.109375 5.914063 8.246094 8.246094-3.136719 2.332031-5.914063 5.109375-8.246094 8.246094zm0 0"/><path d="m432 224h16v16h-16zm0 0"/><path d="m432 256h16v16h-16zm0 0"/><path d="m416 240h16v16h-16zm0 0"/><path d="m448 240h16v16h-16zm0 0"/><path d="m112 360h16v16h-16zm0 0"/><path d="m112 392h16v16h-16zm0 0"/><path d="m96 376h16v16h-16zm0 0"/><path d="m128 376h16v16h-16zm0 0"/><path d="m384 424h16v16h-16zm0 0"/><path d="m384 456h16v16h-16zm0 0"/><path d="m368 440h16v16h-16zm0 0"/><path d="m400 440h16v16h-16zm0 0"/><path d="m40 24h16v16h-16zm0 0"/><path d="m40 56h16v16h-16zm0 0"/><path d="m24 40h16v16h-16zm0 0"/><path d="m56 40h16v16h-16zm0 0"/></svg>