<svg id="Layer_1" enable-background="new 0 0 512 512" height="512" viewBox="0 0 512 512" width="512" xmlns="http://www.w3.org/2000/svg" xmlns:xlink="http://www.w3.org/1999/xlink"><linearGradient id="SVGID_1_" gradientUnits="userSpaceOnUse" x1="256" x2="256" y1="-2.801" y2="509.199"><stop offset="0" stop-color="#01f1fe"/><stop offset="1" stop-color="#4fadfe"/></linearGradient><path d="m512 480c0 17.673-14.327 32-32 32h-448c-17.673 0-32-14.327-32-32s14.327-32 32-32h448c17.673 0 32 14.327 32 32zm-278.627-101.372c6.249 6.249 14.437 9.373 22.627 9.373 8.188 0 16.38-3.125 22.627-9.373l113.378-113.377c12.497-12.497 12.497-32.758 0-45.255s-32.758-12.497-45.255 0l-58.75 58.75v-246.746c0-17.673-14.327-32-32-32s-32 14.327-32 32v246.746l-58.75-58.75c-12.497-12.497-32.758-12.497-45.255 0s-12.497 32.758 0 45.255z" fill="url(#SVGID_1_)"/></svg>